<svg version="1.1" xmlns="http://www.w3.org/2000/svg" xmlns:xlink="http://www.w3.org/1999/xlink" x="0px" y="0px"
	 viewBox="0 0 1420.3 211.5" style="enable-background:new 0 0 1420.3 211.5;" xml:space="preserve">
<style type="text/css">
	.st0{fill:#000000;}
</style>
<image style="display:none;overflow:visible;" width="900" height="150" xlink:href="1DD2FCAE92BC28F4.jpg"  transform="matrix(1.3652 0 0 1.3652 89.3539 4.639)">
</image>
<g>
	<path className="st0" d="M128,134c0,3.2-0.6,5.4-1.7,6.5c-1.2,1.2-2.4,1.7-3.7,1.7c-1.7,0-3.1-0.5-4.4-1.6c-1.2-1-1.9-3.3-1.9-6.8v-46
		c0-4.4-1-8.2-2.8-11.5c-1.9-3.3-4.4-6-7.6-8.1c-3.1-2.1-6.8-3.7-10.8-4.8c-4-1.1-8.2-1.6-12.6-1.6c-4.8,0-9,0.6-12.5,1.8
		c-3.6,1.2-6.6,2.8-8.9,4.7c-2.4,2-4.1,4.2-5.3,6.7c-1.2,2.5-1.8,5-1.8,7.6c0,3.7,1.2,6.8,3.6,9.3s5.4,3.7,8.9,3.7
		c3.3,0,6.1-1.1,8.5-3.4c2.4-2.2,3.5-5.2,3.5-8.8c0-3.3-1.1-6.1-3.2-8.5s-4.8-3.6-8-3.6c-2.2,0-3.8,0.4-4.9,1.1
		c-1,0.7-1.7,0.9-2.1,0.9c0-0.4,0.3-1.2,1.4-2.4c1-1.1,2.4-2.1,4.2-3.1c1.8-1,4-1.8,6.5-2.6c2.5-0.7,5.3-1.1,8.3-1.1
		c3.9,0,7.2,1.2,9.9,3.6c2.6,2.3,3.9,5.5,3.9,9.4v17.1c-1.2,1.8-3,3.3-5.4,4.7c-2.5,1.4-5.9,2.7-10.3,3.8c-3.1,0.8-6.4,1.7-9.8,2.7
		c-3.4,0.9-6.6,2.3-9.5,4s-5.3,3.9-7.2,6.6s-2.8,6.3-2.8,10.7c0,3.8,0.7,7.2,1.9,10.1c1.3,2.8,2.9,5.2,4.9,6.9c2,1.8,4.3,3.1,6.8,4
		s5.1,1.3,7.6,1.3c7.5,0,13.4-1.9,17.4-5.6c3.5-3.2,5.9-7.2,7.2-11.9c0.6,2.3,1.4,4.4,2.5,6.1c1.3,2.4,3,4.3,4.8,5.8
		c1.9,1.5,3.9,2.6,6.1,3.4c2.2,0.8,4.5,1.1,6.9,1.1c9.5,0,14.4-4.7,14.4-13.9v-24.3h-2.2V134H128z M80.8,144.1
		c-1.5,0-2.8-0.2-3.9-0.7c-1-0.5-1.9-1.3-2.5-2.6c-0.7-1.3-1.2-3.1-1.5-5.3c-0.4-2.3-0.5-5.2-0.5-8.9c0-6.3,0.8-11.5,2.2-15.4
		c1.4-3.8,4.6-6.4,9.3-7.7c4.7-1.2,8.2-3,10.7-5.4v25.4c0,2.4-0.4,4.9-1.2,7.4c-0.8,2.4-1.8,4.7-3.2,6.7c-1.3,2-2.8,3.6-4.4,4.8
		C84.2,143.5,82.5,144.1,80.8,144.1z"/>
	<path className="st0" d="M241.4,115.7c0.1,4.3-0.4,8.4-1.5,12.1c-1.1,3.7-2.6,6.9-4.6,9.6c-1.9,2.6-4.3,4.8-7.1,6.3
		c-2.7,1.5-5.7,2.3-8.9,2.3c-3.7,0-6.9-0.6-9.6-1.9c-2.7-1.3-4.9-3.4-6.6-6.5c-1.7-3.1-3.1-7.2-3.9-12.4c-0.9-5.2-1.3-11.8-1.3-19.6
		c0-14.8,1.9-25.6,5.7-32c3.7-6.3,9-9.5,15.7-9.5c2.5,0,4.9,0.4,7.1,1.2c2.2,0.8,4.1,1.9,5.7,3.1c1.6,1.2,2.8,2.5,3.7,4
		c0.9,1.4,1.3,2.6,1.3,3.6c0,0.2,0,0.2-0.2,0.2s-0.9-0.1-2.7-1.1c-1.5-0.8-3.5-1.2-5.8-1.2c-3.1,0-5.9,1.2-8.4,3.5s-3.8,5.5-3.8,9.3
		c0,2,0.4,3.8,1.1,5.3c0.7,1.6,1.7,3,3,4.1c1.2,1.1,2.6,2,4.2,2.7c1.5,0.7,3.1,1,4.8,1c3.8,0,7-1.4,9.5-4c2.5-2.7,3.8-6.1,3.8-10.2
		c0-3.1-0.6-6.1-1.7-9c-1.1-2.9-2.8-5.5-4.9-7.7c-2.1-2.2-4.9-4-8.1-5.2c-3.2-1.3-7-1.9-11.1-1.9c-7,0-13.2,1.2-18.4,3.7
		c-5.2,2.4-9.6,5.8-13.1,9.9c-3.4,4.1-6.1,8.9-7.8,14.3s-2.6,11.1-2.6,17c0,5.5,0.8,10.9,2.3,16s3.9,9.7,7.1,13.6
		c3.2,3.9,7.2,7.1,12.1,9.5c4.8,2.4,10.6,3.6,17.1,3.6c5.3,0,9.9-0.9,13.7-2.6c3.8-1.7,7-4.1,9.5-7.2c2.4-3,4.3-6.6,5.4-10.7
		c1.1-4.1,1.7-8.5,1.7-13.3v-0.5h-2.2L241.4,115.7z"/>
	<path className="st0" d="M312.9,66.5c-1.4-1.4-2.9-2.5-4.6-3.2s-3.4-1.1-5.2-1.1c-2.6,0-4.9,0.4-6.8,1.3c-1.9,0.9-3.6,2-5,3.4
		s-2.5,3-3.3,4.9c-0.3,0.6-0.5,1.3-0.8,2v-9.1h-34.6V67h12.7v76.5h-12.7v2.2h47.2v-2.2h-12.6V88.1c0-4.7,0.5-8.7,1.4-11.8
		c0.9-3.1,2.1-5.5,3.6-7.3s3.1-3,5-3.7s3.8-1.1,5.7-1.1c1.5,0,2.9,0.3,4,0.7c1.2,0.5,2.3,1.1,3.2,1.7c0.9,0.6,1.6,1.3,2.1,2.1
		c0.6,0.9,0.7,1.3,0.7,1.5c0,0.3-0.1,0.4-0.1,0.4c-0.1,0-0.5,0-2.1-1.2c-1.3-1-3.5-1.4-6.7-1.4c-3,0-5.6,1.1-7.7,3.2
		s-3.2,4.9-3.2,8.2c0,3.5,1.2,6.4,3.5,8.5s5.2,3.2,8.7,3.2c3.6,0,6.5-1.3,8.7-3.7c2.2-2.4,3.3-5.6,3.3-9.4c0-2.4-0.4-4.6-1.2-6.5
		C315.3,69.6,314.2,67.9,312.9,66.5z"/>
	<path className="st0" d="M393.9,116.8v0.5c0,4-0.7,7.8-2.2,11.4c-1.4,3.5-3.4,6.7-5.8,9.3s-5.2,4.7-8.2,6.2s-6.1,2.2-9.3,2.2
		c-3.3,0-6.2-0.7-8.9-2c-2.6-1.3-4.9-3.5-6.9-6.6s-3.5-7.3-4.5-12.5s-1.6-11.8-1.6-19.6v-1.5l48.6-0.2v-5.6c0-4.4-0.7-8.9-2.1-13.2
		c-1.4-4.3-3.5-8.3-6.2-11.8c-2.8-3.5-6.2-6.4-10.2-8.5s-8.8-3.2-14.1-3.2c-5.6,0-10.8,1-15.4,3.1c-4.6,2.1-8.6,5.1-12,9
		c-3.3,3.9-6,8.8-7.8,14.4s-2.8,12.1-2.8,19.1c0,6.8,1.1,12.8,3.3,18c2.2,5.2,5.2,9.6,8.9,13.1c3.7,3.5,8.1,6.2,13.1,7.9
		s10.2,2.6,15.6,2.6c5.1,0,9.6-1,13.5-3.1c3.8-2,7.1-4.6,9.6-7.8c2.5-3.1,4.5-6.6,5.7-10.2c1.2-3.7,1.8-7.2,1.7-10.6v-0.5h-2V116.8z
		 M355.9,65.9c1.9-1.3,4.2-2,6.7-2c2,0,3.7,0.5,5.2,1.6s2.8,2.5,3.9,4.2c1.1,1.8,1.9,3.8,2.4,6s0.8,4.5,0.8,6.7v19.4h-28.2
		c0.1-6.8,0.5-12.7,1.2-17.6s1.8-8.9,3.1-12C352.3,69.4,354,67.2,355.9,65.9z"/>
	<path className="st0" d="M487,134c0,3.2-0.6,5.4-1.7,6.5c-1.2,1.2-2.4,1.7-3.7,1.7c-1.7,0-3.1-0.5-4.4-1.6c-1.2-1-1.9-3.3-1.9-6.8v-46
		c0-4.4-1-8.2-2.8-11.5c-1.9-3.3-4.4-6-7.6-8.1c-3.1-2.1-6.8-3.7-10.8-4.8c-4-1.1-8.2-1.6-12.6-1.6c-4.8,0-9,0.6-12.5,1.8
		c-3.6,1.2-6.6,2.8-8.9,4.7c-2.4,2-4.1,4.2-5.3,6.7c-1.2,2.5-1.8,5-1.8,7.6c0,3.7,1.2,6.8,3.6,9.3s5.4,3.7,8.9,3.7
		c3.3,0,6.1-1.1,8.5-3.4c2.4-2.2,3.5-5.2,3.5-8.8c0-3.3-1.1-6.1-3.2-8.5s-4.8-3.6-8-3.6c-2.2,0-3.8,0.4-4.9,1.1
		c-1,0.7-1.7,0.9-2.1,0.9c0-0.4,0.3-1.2,1.4-2.4c1-1.1,2.4-2.1,4.2-3.1c1.8-1,4-1.8,6.5-2.6c2.5-0.7,5.3-1.1,8.3-1.1
		c3.9,0,7.2,1.2,9.9,3.6c2.6,2.3,3.9,5.5,3.9,9.4v17.1c-1.2,1.8-3,3.3-5.4,4.7c-2.5,1.4-5.9,2.7-10.3,3.8c-3.1,0.8-6.4,1.7-9.8,2.7
		c-3.4,0.9-6.6,2.3-9.5,4s-5.3,3.9-7.2,6.6c-1.9,2.7-2.8,6.3-2.8,10.7c0,3.8,0.7,7.2,1.9,10.1c1.3,2.8,2.9,5.2,4.9,6.9
		c2,1.8,4.3,3.1,6.8,4s5.1,1.3,7.6,1.3c7.5,0,13.4-1.9,17.4-5.6c3.5-3.2,5.9-7.2,7.2-11.9c0.6,2.3,1.4,4.4,2.5,6.1
		c1.3,2.4,3,4.3,4.8,5.8c1.9,1.5,3.9,2.6,6.1,3.4c2.2,0.8,4.5,1.1,6.9,1.1c9.5,0,14.4-4.7,14.4-13.9v-24.3h-2.2V134H487z
		 M439.8,144.1c-1.5,0-2.8-0.2-3.9-0.7c-1-0.5-1.9-1.3-2.5-2.6c-0.7-1.3-1.2-3.1-1.5-5.3c-0.4-2.3-0.5-5.2-0.5-8.9
		c0-6.3,0.8-11.5,2.2-15.4c1.4-3.8,4.6-6.4,9.3-7.7c4.7-1.2,8.2-3,10.7-5.4v25.4c0,2.4-0.4,4.9-1.2,7.4c-0.8,2.4-1.8,4.7-3.2,6.7
		c-1.3,2-2.8,3.6-4.4,4.8C443.2,143.5,441.5,144.1,439.8,144.1z"/>
	<path className="st0" d="M538.3,133.9c0,2.9-0.5,5.2-1.6,6.8c-1,1.5-2.3,2.3-3.9,2.3c-1.8,0-3.3-0.7-4.5-2c-1.2-1.4-1.8-3.7-1.8-6.9V67
		h13.7v-2.2h-13.7V35.6l-0.9,0.9c-2.3,2.3-5.2,4.1-8.4,5.2c-3.2,1.1-6.1,1.7-8.6,1.7c-1.6,0-2.3-0.1-2.7-0.2c-0.4,0-0.6-0.1-0.7-0.1
		l-0.8-0.4v22h-9.8V67h9.8v55.5c0,5,0.7,9.1,2,12.4c1.3,3.3,3,5.9,5.1,8c2,2,4.3,3.5,6.8,4.3s4.8,1.2,7.1,1.2
		c4.8,0,8.6-1.3,11.1-3.8s3.8-6.1,3.8-10.6v-21.3h-2.2v21.2H538.3z"/>
	<g>
		<polygon className="st0" points="589.7,64.8 554,64.8 554,67 567.8,67 567.8,143.4 555.4,143.4 555.4,145.6 600,145.6 600,143.4 
			589.7,143.4 		"/>
		<path className="st0" d="M577.8,51.9c3.4,0,6.3-1.2,8.7-3.7s3.6-5.5,3.6-8.9c0-3.5-1.2-6.5-3.6-8.9c-2.4-2.5-5.3-3.7-8.7-3.7
			c-3.5,0-6.5,1.2-9,3.7s-3.7,5.5-3.7,9s1.2,6.5,3.7,9C571.3,50.6,574.3,51.9,577.8,51.9z"/>
	</g>
	<polygon className="st0" points="695,64.8 665.6,64.8 665.6,67 679.2,67 659,118.3 636.7,67 650.5,67 650.5,64.8 601.1,64.8 601.1,67 
		613.4,67 649.6,149 681.9,67 695,67 	"/>
	<path className="st0" d="M761.6,116.8v0.5c0,4-0.7,7.8-2.2,11.4c-1.4,3.5-3.4,6.7-5.8,9.3c-2.4,2.6-5.2,4.7-8.2,6.2s-6.1,2.2-9.3,2.2
		c-3.3,0-6.2-0.7-8.9-2c-2.6-1.3-4.9-3.5-6.9-6.6s-3.5-7.3-4.5-12.5s-1.6-11.8-1.6-19.6v-1.5l48.6-0.2v-5.6c0-4.4-0.7-8.9-2.1-13.2
		c-1.4-4.3-3.5-8.3-6.2-11.8c-2.8-3.5-6.2-6.4-10.2-8.5s-8.8-3.2-14.1-3.2c-5.6,0-10.8,1-15.4,3.1c-4.6,2.1-8.6,5.1-12,9
		c-3.3,3.9-6,8.8-7.8,14.4s-2.8,12.1-2.8,19.1c0,6.8,1.1,12.8,3.3,18c2.2,5.2,5.2,9.6,8.9,13.1s8.1,6.2,13.1,7.9s10.2,2.6,15.6,2.6
		c5.1,0,9.6-1,13.5-3.1c3.8-2,7.1-4.6,9.6-7.8c2.5-3.1,4.5-6.6,5.7-10.2c1.2-3.7,1.8-7.2,1.7-10.6v-0.5h-2V116.8z M723.7,65.9
		c1.9-1.3,4.2-2,6.7-2c2,0,3.7,0.5,5.2,1.6s2.8,2.5,3.9,4.2c1.1,1.8,1.9,3.8,2.4,6s0.8,4.5,0.8,6.7v19.4h-28.2
		c0.1-6.8,0.5-12.7,1.2-17.6s1.8-8.9,3.1-12C720.1,69.4,721.7,67.2,723.7,65.9z"/>
	<path className="st0" d="M882.7,72.3c-3.3-3.5-7.1-6.1-11.2-7.8c-4.1-1.6-8.4-2.5-12.6-2.5c-4.1,0-7.9,1.1-11.3,3.3
		c-2.8,1.8-5.1,4.7-6.9,8.7v-9.3h-35.4V67H819v115.8h-13.7v2.2h48.9v-2.2h-13.5v-46.7c1.6,3.6,3.6,6.5,6.1,8.8
		c3.1,2.8,7,4.2,11.8,4.2s9.3-0.9,13.6-2.8c4.2-1.9,8-4.6,11.1-8.2c3.1-3.6,5.6-8.2,7.5-13.5c1.8-5.4,2.8-11.6,2.8-18.6
		c0-7.8-1-14.5-2.9-20C888.6,80.4,886,75.8,882.7,72.3z M846.8,69.2c2.8-2.8,5.9-4.2,9.1-4.2c5.1,0,8.6,3.3,10.7,10
		c2.1,6.8,3.2,17.3,3.2,31c0,13.9-1.1,24.3-3.3,30.9c-2.1,6.5-5.6,9.6-10.5,9.6c-3.5,0-6.6-1.6-9.3-4.7c-2.7-3.2-4.7-7.1-6.1-11.8
		V81.1C841.9,76,844,72,846.8,69.2z"/>
	<path className="st0" d="M987.4,134c0,3.2-0.6,5.4-1.7,6.5c-1.2,1.2-2.4,1.7-3.7,1.7c-1.7,0-3.1-0.5-4.4-1.6c-1.2-1-1.9-3.3-1.9-6.8
		v-46c0-4.4-1-8.2-2.8-11.5c-1.9-3.3-4.4-6-7.6-8.1c-3.1-2.1-6.8-3.7-10.8-4.8c-4-1.1-8.2-1.6-12.6-1.6c-4.8,0-9,0.6-12.5,1.8
		c-3.6,1.2-6.6,2.8-8.9,4.7c-2.4,2-4.1,4.2-5.3,6.7s-1.8,5-1.8,7.6c0,3.7,1.2,6.8,3.6,9.3c2.4,2.5,5.4,3.7,8.9,3.7
		c3.3,0,6.1-1.1,8.5-3.4c2.4-2.2,3.5-5.2,3.5-8.8c0-3.3-1.1-6.1-3.2-8.5c-2.1-2.4-4.8-3.6-8-3.6c-2.2,0-3.8,0.4-4.9,1.1
		c-1,0.7-1.7,0.9-2.1,0.9c0-0.4,0.3-1.2,1.4-2.4c1-1.1,2.4-2.1,4.2-3.1s4-1.8,6.5-2.6c2.5-0.7,5.3-1.1,8.3-1.1
		c3.9,0,7.2,1.2,9.9,3.6c2.6,2.3,3.9,5.5,3.9,9.4v17.1c-1.2,1.8-3,3.3-5.4,4.7c-2.5,1.4-5.9,2.7-10.3,3.8c-3.1,0.8-6.4,1.7-9.8,2.7
		c-3.4,0.9-6.6,2.3-9.5,4s-5.3,3.9-7.2,6.6s-2.9,6.3-2.9,10.7c0,3.8,0.7,7.2,1.9,10.1c1.3,2.8,2.9,5.2,4.9,6.9c2,1.8,4.3,3.1,6.8,4
		s5.1,1.3,7.6,1.3c7.5,0,13.4-1.9,17.4-5.6c3.5-3.2,5.9-7.2,7.3-11.9c0.6,2.3,1.4,4.4,2.5,6.1c1.3,2.4,3,4.3,4.8,5.8
		c1.9,1.5,3.9,2.6,6.1,3.4c2.2,0.8,4.5,1.1,6.9,1.1c9.5,0,14.4-4.7,14.4-13.9v-24.3h-2.2V134H987.4z M940.2,144.1
		c-1.5,0-2.8-0.2-3.9-0.7c-1-0.5-1.9-1.3-2.5-2.6c-0.7-1.3-1.2-3.1-1.5-5.3c-0.4-2.3-0.5-5.2-0.5-8.9c0-6.3,0.8-11.5,2.2-15.4
		c1.4-3.8,4.6-6.4,9.3-7.7c4.7-1.2,8.2-3,10.7-5.4v25.4c0,2.4-0.4,4.9-1.2,7.4c-0.8,2.4-1.8,4.7-3.2,6.7c-1.3,2-2.8,3.6-4.4,4.8
		C943.6,143.5,941.9,144.1,940.2,144.1z"/>
	<path className="st0" d="M1058.2,66.5c-1.4-1.4-2.9-2.5-4.6-3.2s-3.4-1.1-5.2-1.1c-2.6,0-4.9,0.4-6.8,1.3c-1.9,0.9-3.6,2-5,3.4
		s-2.5,3-3.3,4.9c-0.3,0.6-0.5,1.3-0.8,2v-9.1h-34.4V67h12.7v76.5h-12.7v2.2h47.2v-2.2h-12.6V88.1c0-4.8,0.5-8.7,1.4-11.8
		c0.9-3.1,2.1-5.5,3.6-7.3s3.1-3,5-3.7s3.8-1.1,5.7-1.1c1.5,0,2.9,0.3,4,0.7c1.2,0.5,2.3,1.1,3.2,1.7s1.6,1.3,2.1,2.1
		c0.6,0.9,0.7,1.3,0.7,1.5c0,0.3-0.1,0.4-0.1,0.4l0,0c-0.1,0-0.5-0.1-2.1-1.2c-1.3-1-3.5-1.4-6.7-1.4c-3,0-5.6,1.1-7.7,3.2
		c-2.1,2.1-3.2,4.9-3.2,8.2c0,3.5,1.2,6.4,3.5,8.5c2.3,2.1,5.2,3.2,8.7,3.2c3.6,0,6.5-1.3,8.7-3.7c2.2-2.4,3.3-5.6,3.3-9.4
		c0-2.4-0.4-4.6-1.2-6.5C1060.6,69.6,1059.5,67.9,1058.2,66.5z"/>
	<path className="st0" d="M1115.9,133.9c0,2.9-0.5,5.2-1.6,6.8c-1,1.5-2.3,2.3-3.9,2.3c-1.8,0-3.3-0.7-4.5-2c-1.2-1.4-1.8-3.7-1.8-6.9
		V67h13.7v-2.2h-13.7V35.6l-0.9,0.9c-2.3,2.3-5.2,4.1-8.4,5.2c-3.2,1.1-6.1,1.7-8.6,1.7c-1.6,0-2.3-0.1-2.7-0.2
		c-0.4,0-0.6-0.1-0.7-0.1l-0.8-0.4v22h-9.8V67h9.8v55.5c0,5,0.7,9.2,2,12.4c1.3,3.2,3,5.9,5.1,8c2,2,4.3,3.5,6.8,4.3
		s4.8,1.2,7.1,1.2c4.8,0,8.6-1.3,11.1-3.8s3.8-6.1,3.8-10.6v-21.3h-2.2v21.2H1115.9z"/>
	<path className="st0" d="M1210.1,90.3c0-4.4-0.6-8.5-1.9-12s-3.1-6.5-5.3-8.9c-2.2-2.4-4.9-4.3-8-5.6c-3-1.3-6.4-1.9-9.9-1.9
		c-3.2,0-6,0.5-8.4,1.5s-4.5,2.4-6.2,4.2c-1.8,1.8-3.3,3.9-4.4,6.4c-0.6,1.3-1.2,2.7-1.7,4.1V64.8h-35.8V67h14.3v76.5h-12.6v2.2
		h44.6v-2.2h-10.5V95.2c0-5.3,0.5-9.8,1.5-13.5s2.2-6.8,3.8-9.1c1.5-2.3,3.2-4,5.1-5.1c1.8-1,3.7-1.6,5.5-1.6c2.6,0,4.6,1,6.3,3.1
		c1.6,2.1,2.5,5.6,2.5,10.4v64.1h-9.8v2.2h44.3v-2.2h-13.4V90.3z"/>
	<path className="st0" d="M1296.3,116.8v0.5c0,4-0.7,7.8-2.2,11.4c-1.4,3.5-3.4,6.7-5.8,9.3s-5.2,4.7-8.2,6.2s-6.1,2.2-9.3,2.2
		c-3.3,0-6.2-0.7-8.9-2c-2.6-1.3-4.9-3.5-6.9-6.6s-3.5-7.3-4.5-12.5s-1.6-11.8-1.6-19.6v-1.5l48.6-0.2v-5.6c0-4.4-0.7-8.9-2.1-13.2
		c-1.4-4.3-3.5-8.3-6.2-11.8c-2.8-3.5-6.2-6.4-10.2-8.5s-8.8-3.2-14.1-3.2c-5.6,0-10.8,1-15.4,3.1c-4.6,2.1-8.6,5.1-12,9
		c-3.3,3.9-6,8.8-7.8,14.4s-2.8,12.1-2.8,19.1c0,6.8,1.1,12.8,3.3,18c2.2,5.2,5.2,9.6,8.9,13.1c3.7,3.5,8.1,6.2,13.1,7.9
		s10.2,2.6,15.6,2.6c5.1,0,9.6-1,13.5-3.1c3.8-2,7.1-4.6,9.6-7.8c2.5-3.1,4.5-6.6,5.7-10.2c1.2-3.7,1.8-7.2,1.7-10.6v-0.5h-2V116.8z
		 M1258.4,65.9c1.9-1.3,4.2-2,6.7-2c2,0,3.7,0.5,5.2,1.6s2.8,2.5,3.9,4.2c1.1,1.8,1.9,3.8,2.4,6s0.8,4.5,0.8,6.7v19.4h-28.3
		c0.1-6.8,0.5-12.7,1.2-17.6s1.8-8.9,3.1-12C1254.7,69.4,1256.4,67.2,1258.4,65.9z"/>
	<path className="st0" d="M1369.5,71.6c-0.8-1.9-1.9-3.6-3.3-5s-2.9-2.5-4.6-3.2s-3.4-1.1-5.2-1.1c-2.6,0-4.9,0.4-6.8,1.3
		c-1.9,0.9-3.6,2-5,3.4s-2.5,3-3.3,4.9c-0.3,0.6-0.5,1.3-0.8,2v-9.1h-34.4V67h12.7v76.5h-12.7v2.2h47.2v-2.2h-12.6V88.1
		c0-4.8,0.5-8.7,1.4-11.8c0.9-3.1,2.1-5.5,3.6-7.3s3.1-3,5-3.7s3.8-1.1,5.7-1.1c1.5,0,2.9,0.3,4,0.7c1.2,0.5,2.3,1.1,3.2,1.7
		c0.9,0.6,1.6,1.3,2.1,2.1c0.6,0.9,0.7,1.3,0.7,1.5c0,0.3-0.1,0.4-0.1,0.4l0,0c-0.1,0-0.5-0.1-2.1-1.2c-1.3-1-3.5-1.4-6.7-1.4
		c-3,0-5.6,1.1-7.7,3.2s-3.2,4.9-3.2,8.2c0,3.5,1.2,6.4,3.5,8.5s5.2,3.2,8.7,3.2c3.6,0,6.5-1.3,8.7-3.7c2.2-2.4,3.3-5.6,3.3-9.4
		C1370.7,75.7,1370.3,73.5,1369.5,71.6z"/>
</g>
</svg>
